<svg width="131" height="115" viewBox="0 0 131 115" fill="none" xmlns="http://www.w3.org/2000/svg">
<path d="M88.1402 15.2055L74.3408 38.9943C70.4206 45.7522 60.6203 45.7522 56.7002 38.9943L42.9008 15.2055L34.4102 0.000335693H96.7578L88.1402 15.2055Z" fill="black"/>
<path d="M39.9966 16.6767L53.7473 40.4936C57.6398 47.2675 52.7513 55.6795 44.9387 55.6955L17.4373 55.6955L0.0239158 55.6955L31.2582 1.54122L39.9966 16.6767Z" fill="black"/>
<path d="M90.9546 16.6767L77.2038 40.4936C73.3114 47.2675 78.1999 55.6795 86.0124 55.6955L113.514 55.6955L130.927 55.6955L99.693 1.54122L90.9546 16.6767Z" fill="black"/>
<path d="M42.8119 99.5581L56.6114 75.7693C60.5315 69.0115 70.3318 69.0115 74.2519 75.7693L88.0514 99.5581L96.542 114.763L34.1943 114.763L42.8119 99.5581Z" fill="black"/>
<path d="M90.9545 98.0868L77.2038 74.2698C73.3114 67.496 78.1999 59.0839 86.0124 59.0679L113.514 59.0679L130.927 59.0679L99.693 113.222L90.9545 98.0868Z" fill="black"/>
<path d="M39.9966 98.0868L53.7473 74.2698C57.6398 67.496 52.7513 59.0839 44.9387 59.0679L17.4373 59.0679L0.0239132 59.0679L31.2582 113.222L39.9966 98.0868Z" fill="black"/>
</svg>
